<mxfile host="app.diagrams.net" modified="2021-09-09T01:36:41.270Z" agent="5.0 (Windows NT 10.0; Win64; x64) AppleWebKit/537.36 (KHTML, like Gecko) Chrome/87.0.4280.66 Safari/537.36" etag="lyOrJkDodkFKGMGJhr4K" version="14.9.9" type="github">
  <diagram id="3_kndmy1NmJcdZolVc0a" name="Page-1">
    <mxGraphModel dx="1422" dy="762" grid="1" gridSize="10" guides="1" tooltips="1" connect="1" arrows="1" fold="1" page="1" pageScale="1" pageWidth="827" pageHeight="1169" math="0" shadow="0">
      <root>
        <mxCell id="0" />
        <mxCell id="1" parent="0" />
        <mxCell id="AhoEpIveq5JiodgUGrTK-3" value="" style="rounded=0;orthogonalLoop=1;jettySize=auto;html=1;" edge="1" parent="1" source="AhoEpIveq5JiodgUGrTK-1" target="AhoEpIveq5JiodgUGrTK-2">
          <mxGeometry relative="1" as="geometry" />
        </mxCell>
        <mxCell id="AhoEpIveq5JiodgUGrTK-4" value="" style="edgeStyle=none;rounded=0;orthogonalLoop=1;jettySize=auto;html=1;" edge="1" parent="1" source="AhoEpIveq5JiodgUGrTK-1" target="AhoEpIveq5JiodgUGrTK-2">
          <mxGeometry relative="1" as="geometry" />
        </mxCell>
        <mxCell id="AhoEpIveq5JiodgUGrTK-6" value="" style="edgeStyle=none;rounded=0;orthogonalLoop=1;jettySize=auto;html=1;" edge="1" parent="1" source="AhoEpIveq5JiodgUGrTK-1" target="AhoEpIveq5JiodgUGrTK-5">
          <mxGeometry relative="1" as="geometry" />
        </mxCell>
        <mxCell id="AhoEpIveq5JiodgUGrTK-1" value="0" style="rounded=0;whiteSpace=wrap;html=1;" vertex="1" parent="1">
          <mxGeometry x="380" y="100" width="120" height="60" as="geometry" />
        </mxCell>
        <mxCell id="AhoEpIveq5JiodgUGrTK-8" value="" style="edgeStyle=none;rounded=0;orthogonalLoop=1;jettySize=auto;html=1;" edge="1" parent="1" source="AhoEpIveq5JiodgUGrTK-2" target="AhoEpIveq5JiodgUGrTK-7">
          <mxGeometry relative="1" as="geometry" />
        </mxCell>
        <mxCell id="AhoEpIveq5JiodgUGrTK-11" value="" style="edgeStyle=none;rounded=0;orthogonalLoop=1;jettySize=auto;html=1;" edge="1" parent="1" source="AhoEpIveq5JiodgUGrTK-2" target="AhoEpIveq5JiodgUGrTK-10">
          <mxGeometry relative="1" as="geometry" />
        </mxCell>
        <mxCell id="AhoEpIveq5JiodgUGrTK-2" value="1" style="rounded=0;whiteSpace=wrap;html=1;" vertex="1" parent="1">
          <mxGeometry x="210" y="260" width="120" height="60" as="geometry" />
        </mxCell>
        <mxCell id="AhoEpIveq5JiodgUGrTK-13" value="" style="edgeStyle=none;rounded=0;orthogonalLoop=1;jettySize=auto;html=1;" edge="1" parent="1" source="AhoEpIveq5JiodgUGrTK-5" target="AhoEpIveq5JiodgUGrTK-12">
          <mxGeometry relative="1" as="geometry" />
        </mxCell>
        <mxCell id="AhoEpIveq5JiodgUGrTK-15" value="" style="edgeStyle=none;rounded=0;orthogonalLoop=1;jettySize=auto;html=1;" edge="1" parent="1" source="AhoEpIveq5JiodgUGrTK-5" target="AhoEpIveq5JiodgUGrTK-14">
          <mxGeometry relative="1" as="geometry" />
        </mxCell>
        <mxCell id="AhoEpIveq5JiodgUGrTK-5" value="2" style="rounded=0;whiteSpace=wrap;html=1;" vertex="1" parent="1">
          <mxGeometry x="540" y="260" width="120" height="60" as="geometry" />
        </mxCell>
        <mxCell id="AhoEpIveq5JiodgUGrTK-7" value="3" style="rounded=0;whiteSpace=wrap;html=1;" vertex="1" parent="1">
          <mxGeometry x="130" y="390" width="120" height="60" as="geometry" />
        </mxCell>
        <mxCell id="AhoEpIveq5JiodgUGrTK-10" value="4" style="rounded=0;whiteSpace=wrap;html=1;" vertex="1" parent="1">
          <mxGeometry x="294" y="390" width="120" height="60" as="geometry" />
        </mxCell>
        <mxCell id="AhoEpIveq5JiodgUGrTK-12" value="5" style="rounded=0;whiteSpace=wrap;html=1;" vertex="1" parent="1">
          <mxGeometry x="460" y="390" width="120" height="60" as="geometry" />
        </mxCell>
        <mxCell id="AhoEpIveq5JiodgUGrTK-14" value="6" style="rounded=0;whiteSpace=wrap;html=1;" vertex="1" parent="1">
          <mxGeometry x="630" y="390" width="120" height="60" as="geometry" />
        </mxCell>
      </root>
    </mxGraphModel>
  </diagram>
</mxfile>
